<svg width="200px" height="200px" xmlns="http://www.w3.org/2000/svg">
  <text x="20" y="30" font-family="Arial" font-size="16" fill="#3c64fe" transform="rotate(5 20 30)">A</text>
  <text x="50" y="70" font-family="Arial" font-size="16" fill="#f3cae2" transform="rotate(-20 50 70)">k</text>
  <text x="150" y="30" font-family="Arial" font-size="16" fill="#95e0e2" transform="rotate(15 150 30)">M</text>
  <text x="30" y="90" font-family="Arial" font-size="16" fill="#95d7fa" transform="rotate(-5 30 90)">B</text>
  <text x="100" y="50" font-family="Arial" font-size="16" fill="#958cfa" transform="rotate(10 100 50)">C</text>
  <text x="160" y="110" font-family="Arial" font-size="16" fill="#888888" transform="rotate(-15 160 110)">D</text>
  <text x="60" y="150" font-family="Arial" font-size="16" fill="#c0c0c0" transform="rotate(20 60 150)">E</text>
  <text x="120" y="190" font-family="Arial" font-size="16" fill="#e17d40" transform="rotate(-10 120 190)">F</text>
  <text x="10" y="160" font-family="Arial" font-size="16" fill="#f3f35e" transform="rotate(0 10 160)">1</text>
  <text x="90" y="220" font-family="Arial" font-size="16" fill="#4c6ec7" transform="rotate(-5 90 220)">2</text>
  <text x="180" y="170" font-family="Arial" font-size="16" fill="#666666" transform="rotate(25 180 170)">3</text>
  <text x="40" y="120" font-family="Arial" font-size="16" fill="#8864c7" transform="rotate(15 40 120)">4</text>
  <text x="140" y="80" font-family="Arial" font-size="16" fill="#00b890" transform="rotate(-25 140 80)">5</text>
  <text x="190" y="140" font-family="Arial" font-size="16" fill="#00e26d" transform="rotate(30 190 140)">6</text>
  <text x="70" y="100" font-family="Arial" font-size="16" fill="#4c6ec7" transform="rotate(-15 70 100)">7</text>
  <text x="130" y="160" font-family="Arial" font-size="16" fill="#7fc940" transform="rotate(20 130 160)">8</text>
  <text x="180" y="60" font-family="Arial" font-size="16" fill="#80af5e" transform="rotate(-30 180 60)">9</text>
  <text x="80" y="200" font-family="Arial" font-size="16" fill="#ecaf5e" transform="rotate(10 80 200)">1</text>
</svg>
